<svg width="24" height="24" viewBox="0 0 24 24" fill="none" xmlns="http://www.w3.org/2000/svg">
<path fill-rule="evenodd" clip-rule="evenodd" d="M7.2102 3.36156C8.47178 2.01587 10.1936 1.25 12 1.25C13.8064 1.25 15.5282 2.01587 16.7898 3.36156C18.0498 4.70561 18.75 6.51876 18.75 8.4C18.75 12.0306 19.4786 14.3109 20.1677 15.6585C20.513 16.3338 20.8517 16.7814 21.092 17.052C21.2123 17.1875 21.3086 17.2792 21.3694 17.3332C21.3998 17.3602 21.4214 17.3779 21.4327 17.3869L21.4414 17.3937C21.7025 17.5837 21.8129 17.9199 21.7145 18.2281C21.6152 18.539 21.3263 18.75 21 18.75H2.99999C2.67367 18.75 2.38479 18.539 2.28553 18.2281C2.18712 17.9199 2.29749 17.5837 2.55856 17.3937L2.56729 17.3869C2.57863 17.3779 2.60022 17.3602 2.63063 17.3332C2.69142 17.2792 2.78764 17.1875 2.90798 17.052C3.14829 16.7814 3.48695 16.3338 3.83223 15.6585C4.52136 14.3109 5.24999 12.0306 5.24999 8.4C5.24999 6.51876 5.95015 4.70561 7.2102 3.36156ZM19.3611 17.25C19.189 16.9905 19.01 16.689 18.8322 16.3415C18.0214 14.7558 17.25 12.2361 17.25 8.4C17.25 6.88647 16.6859 5.44389 15.6955 4.38747C14.7066 3.33269 13.3762 2.75 12 2.75C10.6238 2.75 9.29336 3.33269 8.3045 4.38747C7.31411 5.44389 6.74999 6.88647 6.74999 8.4C6.74999 12.2361 5.97863 14.7558 5.16775 16.3415C4.99003 16.689 4.81102 16.9905 4.63885 17.25H19.3611ZM2.56441 17.3895C2.5644 17.3895 2.5644 17.3895 2.5644 17.3895L2.56387 17.3898L2.56351 17.3901L2.56341 17.3902C2.56356 17.3901 2.56372 17.3899 2.56387 17.3898C2.56405 17.3897 2.56423 17.3896 2.56441 17.3895Z" fill="#6E37CC"/>
<path fill-rule="evenodd" clip-rule="evenodd" d="M9.89369 20.3513C10.252 20.1434 10.7109 20.2654 10.9188 20.6237C11.0287 20.8131 11.1864 20.9703 11.3761 21.0796C11.5659 21.1889 11.781 21.2465 12 21.2465C12.219 21.2465 12.4342 21.1889 12.6239 21.0796C12.8137 20.9703 12.9714 20.8131 13.0813 20.6237C13.2891 20.2654 13.7481 20.1434 14.1063 20.3513C14.4646 20.5591 14.5866 21.018 14.3788 21.3763C14.137 21.7931 13.7901 22.139 13.3726 22.3794C12.9551 22.6199 12.4818 22.7465 12 22.7465C11.5183 22.7465 11.0449 22.6199 10.6275 22.3794C10.21 22.139 9.86301 21.7931 9.62127 21.3763C9.41343 21.018 9.5354 20.5591 9.89369 20.3513Z" fill="#6E37CC"/>
</svg>
