<svg width="24" height="24" viewBox="0 0 24 24" fill="none" xmlns="http://www.w3.org/2000/svg">
<path fill-rule="evenodd" clip-rule="evenodd" d="M7.79628 7.25C6.86795 7.25 5.98394 7.64698 5.36719 8.34082L2.56057 11.4983C2.28538 11.8079 1.81132 11.8358 1.50174 11.5606C1.19215 11.2854 1.16426 10.8113 1.43945 10.5017L4.24608 7.34428C5.14747 6.3302 6.4395 5.75 7.79628 5.75L8.00001 5.75C8.41422 5.75 8.75001 6.08579 8.75001 6.5C8.75001 6.91422 8.41422 7.25 8.00001 7.25L7.79628 7.25Z" fill="#6E37CC"/>
<path fill-rule="evenodd" clip-rule="evenodd" d="M15.2582 13.4805C15.1496 14.2479 14.7209 14.9841 13.9685 15.586C13.3632 16.0703 12.8542 16.4521 12.4952 16.7138C12.3157 16.8446 12.1735 16.9455 12.0755 17.0142C12.0265 17.0486 11.9885 17.0749 11.9623 17.0929L11.9365 17.1106L7.94998 20.1002C7.82017 20.1976 7.66229 20.2502 7.50003 20.2502L2.00003 20.2505C1.58582 20.2505 1.25002 19.9147 1.25 19.5005C1.24998 19.0863 1.58575 18.7505 1.99996 18.7505L7.25 18.7502L11.05 15.9005M11.0797 15.8793L11.0809 15.8785L11.0866 15.8746L11.1118 15.8573C11.1346 15.8417 11.1691 15.8178 11.2146 15.7859C11.3055 15.7222 11.44 15.6267 11.6116 15.5016C11.9549 15.2514 12.4459 14.8832 13.0315 14.4147C13.5291 14.0167 13.7254 13.6071 13.773 13.2703C13.8216 12.927 13.726 12.5933 13.525 12.3253C13.1386 11.8102 12.3345 11.5118 11.4159 12.124C10.3872 12.8096 9.37827 13.4403 8.62759 13.899C8.25193 14.1285 7.94021 14.3155 7.72206 14.4452C7.61298 14.5101 7.52725 14.5607 7.46858 14.5952L7.40133 14.6346L7.37794 14.6483C7.01999 14.8567 6.56032 14.7358 6.35188 14.3779C6.14344 14.02 6.26464 13.5608 6.62257 13.3524C6.62256 13.3524 6.62257 13.3524 6.62257 13.3524L6.64378 13.34L6.70816 13.3022C6.76486 13.2689 6.84848 13.2195 6.95534 13.156C7.16908 13.0288 7.47562 12.845 7.84548 12.619C8.58582 12.1667 9.57693 11.547 10.5841 10.8758C12.1655 9.82186 13.8614 10.2738 14.725 11.4254C15.149 11.9908 15.3659 12.7196 15.2582 13.4805" fill="#6E37CC"/>
<path fill-rule="evenodd" clip-rule="evenodd" d="M7.25 7C7.25 5.48122 8.48122 4.25 10 4.25H20C21.5188 4.25 22.75 5.48122 22.75 7V13C22.75 14.5188 21.5188 15.75 20 15.75H13.5V14.25H20C20.6904 14.25 21.25 13.6904 21.25 13V7C21.25 6.30964 20.6904 5.75 20 5.75H10C9.30964 5.75 8.75 6.30964 8.75 7V13.5H7.25V7Z" fill="#6E37CC"/>
<path fill-rule="evenodd" clip-rule="evenodd" d="M15 8.75C15.6904 8.75 16.25 9.30964 16.25 10C16.25 10.6904 15.6904 11.25 15 11.25C14.3096 11.25 13.75 10.6904 13.75 10C13.75 9.30964 14.3096 8.75 15 8.75ZM17.75 10C17.75 8.48122 16.5188 7.25 15 7.25C13.4812 7.25 12.25 8.48122 12.25 10C12.25 11.5188 13.4812 12.75 15 12.75C16.5188 12.75 17.75 11.5188 17.75 10Z" fill="#6E37CC"/>
<path fill-rule="evenodd" clip-rule="evenodd" d="M20.0117 9.44144C20.3196 9.71853 20.3446 10.1927 20.0675 10.5006L20.0575 10.5117C19.7804 10.8196 19.3062 10.8446 18.9983 10.5675C18.6904 10.2904 18.6654 9.81618 18.9425 9.5083L18.9525 9.49718C19.2296 9.1893 19.7038 9.16434 20.0117 9.44144Z" fill="#6E37CC"/>
<path fill-rule="evenodd" clip-rule="evenodd" d="M11.0117 9.44144C11.3196 9.71853 11.3446 10.1927 11.0675 10.5006L11.0575 10.5117C10.7804 10.8196 10.3062 10.8446 9.99828 10.5675C9.6904 10.2904 9.66544 9.81618 9.94254 9.5083L9.95254 9.49718C10.2296 9.1893 10.7038 9.16434 11.0117 9.44144Z" fill="#6E37CC"/>
</svg>
