<svg width="24" height="24" viewBox="0 0 24 24" fill="none" xmlns="http://www.w3.org/2000/svg">
<path fill-rule="evenodd" clip-rule="evenodd" d="M10.5117 8.44132C10.8196 8.71841 10.8446 9.19263 10.5675 9.50051L10.5575 9.51162C10.2804 9.8195 9.80616 9.84446 9.49828 9.56737C9.1904 9.29027 9.16544 8.81606 9.44254 8.50817L9.45254 8.49706C9.72963 8.18918 10.2038 8.16422 10.5117 8.44132Z" fill="#6E37CC"/>
<path fill-rule="evenodd" clip-rule="evenodd" d="M14.5117 8.44132C14.8196 8.71841 14.8446 9.19263 14.5675 9.50051L14.5575 9.51162C14.2804 9.8195 13.8062 9.84446 13.4983 9.56737C13.1904 9.29027 13.1654 8.81606 13.4425 8.50817L13.4525 8.49706C13.7296 8.18918 14.2038 8.16422 14.5117 8.44132Z" fill="#6E37CC"/>
<path fill-rule="evenodd" clip-rule="evenodd" d="M10.5117 12.4413C10.8196 12.7184 10.8446 13.1926 10.5675 13.5005L10.5575 13.5116C10.2804 13.8195 9.80616 13.8445 9.49828 13.5674C9.1904 13.2903 9.16544 12.8161 9.44254 12.5082L9.45254 12.4971C9.72963 12.1892 10.2038 12.1642 10.5117 12.4413Z" fill="#6E37CC"/>
<path fill-rule="evenodd" clip-rule="evenodd" d="M14.5117 12.4413C14.8196 12.7184 14.8446 13.1926 14.5675 13.5005L14.5575 13.5116C14.2804 13.8195 13.8062 13.8445 13.4983 13.5674C13.1904 13.2903 13.1654 12.8161 13.4425 12.5082L13.4525 12.4971C13.7296 12.1892 14.2038 12.1642 14.5117 12.4413Z" fill="#6E37CC"/>
<path fill-rule="evenodd" clip-rule="evenodd" d="M10.5117 16.4413C10.8196 16.7184 10.8446 17.1926 10.5675 17.5005L10.5575 17.5116C10.2804 17.8195 9.80616 17.8445 9.49828 17.5674C9.1904 17.2903 9.16544 16.8161 9.44254 16.5082L9.45254 16.4971C9.72963 16.1892 10.2038 16.1642 10.5117 16.4413Z" fill="#6E37CC"/>
<path fill-rule="evenodd" clip-rule="evenodd" d="M14.5117 16.4413C14.8196 16.7184 14.8446 17.1926 14.5675 17.5005L14.5575 17.5116C14.2804 17.8195 13.8062 17.8445 13.4983 17.5674C13.1904 17.2903 13.1654 16.8161 13.4425 16.5082L13.4525 16.4971C13.7296 16.1892 14.2038 16.1642 14.5117 16.4413Z" fill="#6E37CC"/>
<path fill-rule="evenodd" clip-rule="evenodd" d="M18.75 20.4C18.75 21.1456 18.1456 21.75 17.4 21.75H6.6C5.85441 21.75 5.25 21.1456 5.25 20.4V5.6C5.25 4.85442 5.85441 4.25 6.6 4.25H11.25V3.6C11.25 2.85442 11.8544 2.25 12.6 2.25H17.4C18.1456 2.25 18.75 2.85442 18.75 3.6V20.4ZM17.25 20.25V3.75H12.75V5C12.75 5.41421 12.4142 5.75 12 5.75H6.75V20.25H17.25Z" fill="#6E37CC"/>
</svg>
