<svg width="24" height="24" viewBox="0 0 24 24" fill="none" xmlns="http://www.w3.org/2000/svg">
<path fill-rule="evenodd" clip-rule="evenodd" d="M9.53809 3.61501C11.0512 2.69799 12.9488 2.69799 14.4619 3.61501L19.4619 6.64529C20.8824 7.50617 21.75 9.04681 21.75 10.7078V16.9998C21.75 19.6231 19.6234 21.7498 17 21.7498H7C4.37665 21.7498 2.25 19.6231 2.25 16.9998V10.7078C2.25 9.04681 3.11762 7.50617 4.53809 6.64529L9.53809 3.61501ZM9 16.2498C8.58589 16.2498 8.25017 16.5857 8.25 16.9998C8.25 17.414 8.58579 17.7498 9 17.7498H15C15.4142 17.7498 15.75 17.414 15.75 16.9998C15.7498 16.5857 15.4141 16.2498 15 16.2498H9Z" fill="#6E37CC"/>
</svg>
