<svg width="1920" height="1080" viewBox="0 0 1920 1080" fill="none" xmlns="http://www.w3.org/2000/svg">
<g clip-path="url(#clip0_2_216)">
<rect width="1920" height="1080" fill="white"/>
<rect x="1920" width="540" height="1920" transform="rotate(90 1920 0)" fill="#6E37CC"/>
<rect x="1920" y="540" width="540" height="1920" transform="rotate(90 1920 540)" fill="white"/>
<path fill-rule="evenodd" clip-rule="evenodd" d="M1054.5 752C1085.95 752 1111.5 777.246 1111.99 808.577C1112 808.718 1112 808.858 1112 809V904C1112 910.627 1106.63 916 1100 916C1093.37 916 1088 910.627 1088 904V856.237C1078.57 863.011 1067 867 1054.5 867C1022.74 867 997 841.256 997 809.5C997 777.744 1022.74 752 1054.5 752ZM1054.5 776C1036 776 1021 790.998 1021 809.5C1021 828.002 1036 843 1054.5 843C1073 843 1088 828.002 1088 809.5C1088 790.998 1073 776 1054.5 776Z" fill="#6E37CC"/>
<path d="M857 752C863.627 752 869 757.373 869 764C869 770.627 863.627 776 857 776H829.5C810.998 776 796 790.998 796 809.5C796 828.002 810.998 843 829.5 843H857C863.627 843 869 848.373 869 855C869 861.627 863.627 867 857 867H763C762.916 867 762.833 866.998 762.75 866.996C762.667 866.998 762.584 867 762.5 867C730.744 867 705 841.256 705 809.5C705 802.873 710.373 797.5 717 797.5C723.627 797.5 729 802.873 729 809.5C729 828.002 743.998 843 762.5 843C762.584 843 762.667 843.001 762.75 843.003C762.833 843.001 762.916 843 763 843H782.763C775.989 833.567 772 821.999 772 809.5C772 777.744 797.744 752 829.5 752H857Z" fill="#6E37CC"/>
<path d="M1158.5 752C1190.26 752 1216 777.744 1216 809.5C1216 841.256 1190.26 867 1158.5 867H1131C1124.37 867 1119 861.627 1119 855C1119 848.373 1124.37 843 1131 843H1158.5C1177 843 1192 828.002 1192 809.5C1192 790.998 1177 776 1158.5 776H1131C1124.37 776 1119 770.627 1119 764C1119 757.373 1124.37 752 1131 752H1158.5Z" fill="#6E37CC"/>
<path d="M933 892C939.627 892 945 897.373 945 904C945 910.627 939.627 916 933 916C926.373 916 921 910.627 921 904C921 897.373 926.373 892 933 892Z" fill="#6E37CC"/>
<path d="M887 703C893.627 703 899 708.373 899 715V809.5C899 828.002 913.998 843 932.5 843C951.002 843 966 828.002 966 809.5V764C966 757.373 971.373 752 978 752C984.627 752 990 757.373 990 764V810C990 810.141 989.996 810.281 989.991 810.421C989.499 841.753 963.949 867 932.5 867C901.051 867 875.5 841.753 875.008 810.421C875.003 810.281 875 810.141 875 810V715C875 708.373 880.373 703 887 703Z" fill="#6E37CC"/>
<path fill-rule="evenodd" clip-rule="evenodd" d="M1054.5 212C1085.95 212 1111.5 237.246 1111.99 268.577C1112 268.718 1112 268.858 1112 269V364C1112 370.627 1106.63 376 1100 376C1093.37 376 1088 370.627 1088 364V316.237C1078.57 323.011 1067 327 1054.5 327C1022.74 327 997 301.256 997 269.5C997 237.744 1022.74 212 1054.5 212ZM1054.5 236C1036 236 1021 250.998 1021 269.5C1021 288.002 1036 303 1054.5 303C1073 303 1088 288.002 1088 269.5C1088 250.998 1073 236 1054.5 236Z" fill="white"/>
<path d="M857 212C863.627 212 869 217.373 869 224C869 230.627 863.627 236 857 236H829.5C810.998 236 796 250.998 796 269.5C796 288.002 810.998 303 829.5 303H857C863.627 303 869 308.373 869 315C869 321.627 863.627 327 857 327H763C762.916 327 762.833 326.998 762.75 326.996C762.667 326.998 762.584 327 762.5 327C730.744 327 705 301.256 705 269.5C705 262.873 710.373 257.5 717 257.5C723.627 257.5 729 262.873 729 269.5C729 288.002 743.998 303 762.5 303C762.584 303 762.667 303.001 762.75 303.003C762.833 303.001 762.916 303 763 303H782.763C775.989 293.567 772 281.999 772 269.5C772 237.744 797.744 212 829.5 212H857Z" fill="white"/>
<path d="M1158.5 212C1190.26 212 1216 237.744 1216 269.5C1216 301.256 1190.26 327 1158.5 327H1131C1124.37 327 1119 321.627 1119 315C1119 308.373 1124.37 303 1131 303H1158.5C1177 303 1192 288.002 1192 269.5C1192 250.998 1177 236 1158.5 236H1131C1124.37 236 1119 230.627 1119 224C1119 217.373 1124.37 212 1131 212H1158.5Z" fill="white"/>
<path d="M933 352C939.627 352 945 357.373 945 364C945 370.627 939.627 376 933 376C926.373 376 921 370.627 921 364C921 357.373 926.373 352 933 352Z" fill="white"/>
<path d="M887 163C893.627 163 899 168.373 899 175V269.5C899 288.002 913.998 303 932.5 303C951.002 303 966 288.002 966 269.5V224C966 217.373 971.373 212 978 212C984.627 212 990 217.373 990 224V270C990 270.141 989.996 270.281 989.991 270.421C989.499 301.753 963.949 327 932.5 327C901.051 327 875.5 301.753 875.008 270.421C875.003 270.281 875 270.141 875 270V175C875 168.373 880.373 163 887 163Z" fill="white"/>
</g>
<defs>
<clipPath id="clip0_2_216">
<rect width="1920" height="1080" fill="white"/>
</clipPath>
</defs>
</svg>
