<svg width="1920" height="1080" viewBox="0 0 1920 1080" fill="none" xmlns="http://www.w3.org/2000/svg">
<g clip-path="url(#clip0_2_194)">
<rect width="1920" height="1080" fill="white"/>
<path d="M1920 0H1280V1080H1920V0Z" fill="#DD8C00"/>
<path d="M640 0H0V1080H640V0Z" fill="white"/>
<path d="M1280 0H640V1080H1280V0Z" fill="#6E37CC"/>
<path fill-rule="evenodd" clip-rule="evenodd" d="M373 463C380.732 463 387 469.268 387 477V550.699L386.916 554.213C385.095 590.3 355.38 618.998 319 619C281.448 618.998 251.002 588.419 251 550.699C251.001 512.979 281.447 482.4 319 482.398C333.963 482.399 347.796 487.26 359.025 495.487V495H359V477C359 469.268 365.268 463 373 463ZM319 510.498C296.898 510.5 278.976 528.499 278.975 550.699C278.976 572.899 296.898 590.898 319 590.9C341.102 590.898 359.024 572.899 359.025 550.699C359.024 528.499 341.102 510.5 319 510.498Z" fill="#6E37CC"/>
<path fill-rule="evenodd" clip-rule="evenodd" d="M1654 462C1661.73 462 1668 468.268 1668 476V549.699L1667.92 553.213C1666.09 589.3 1636.38 617.998 1600 618C1562.45 617.998 1532 587.419 1532 549.699C1532 511.979 1562.45 481.4 1600 481.398C1614.96 481.399 1628.8 486.26 1640.03 494.487V494H1640V476C1640 468.268 1646.27 462 1654 462ZM1600 509.498C1577.9 509.5 1559.98 527.499 1559.97 549.699C1559.98 571.899 1577.9 589.898 1600 589.9C1622.1 589.898 1640.02 571.899 1640.03 549.699C1640.02 527.499 1622.1 509.5 1600 509.498Z" fill="white"/>
<path fill-rule="evenodd" clip-rule="evenodd" d="M1014 462C1021.73 462 1028 468.268 1028 476V549.699L1027.92 553.213C1026.09 589.3 996.38 617.998 960 618C922.448 617.998 892.002 587.419 892 549.699C892.001 511.979 922.447 481.4 960 481.398C974.963 481.399 988.796 486.26 1000.03 494.487V494H1000V476C1000 468.268 1006.27 462 1014 462ZM960 509.498C937.898 509.5 919.976 527.499 919.975 549.699C919.976 571.899 937.898 589.898 960 589.9C982.102 589.898 1000.02 571.899 1000.03 549.699C1000.02 527.499 982.102 509.5 960 509.498Z" fill="white"/>
</g>
<defs>
<clipPath id="clip0_2_194">
<rect width="1920" height="1080" fill="white"/>
</clipPath>
</defs>
</svg>
