<svg width="120" height="32" viewBox="640 155 630 230" fill="none" xmlns="http://www.w3.org/2000/svg">
<path fill-rule="evenodd" clip-rule="evenodd" d="M959.479 212.187C991.064 212.188 1016.67 237.848 1016.67 269.499C1016.67 301.151 991.064 326.81 959.479 326.812C946.893 326.811 935.259 322.73 925.814 315.826V364.208C925.814 370.719 920.547 375.999 914.049 375.999C907.552 375.999 902.285 370.719 902.285 364.208V269.499L902.357 266.548C903.89 236.267 928.881 212.187 959.479 212.187ZM959.479 235.769C940.889 235.77 925.815 250.87 925.814 269.499C925.815 288.129 940.889 303.235 959.479 303.235C978.069 303.234 993.137 288.128 993.138 269.499C993.137 250.87 978.069 235.771 959.479 235.769Z" fill="white"/>
<path d="M1248.24 213.233C1254.73 213.234 1260 218.514 1260 225.025V318.583C1260 350.174 1234.51 375.999 1202.7 375.999C1196.2 375.999 1190.94 370.719 1190.94 364.208C1190.94 357.698 1196.21 352.416 1202.7 352.416C1221.44 352.416 1236.46 337.222 1236.46 318.583V317.048C1227.02 323.968 1215.36 328.072 1202.7 328.073C1170.79 328.071 1145.61 302.135 1145.61 270.442V225.025C1145.61 218.514 1150.88 213.234 1157.38 213.233C1163.87 213.233 1169.14 218.513 1169.14 225.025V270.442C1169.14 289.396 1184.07 304.488 1202.7 304.49C1221.36 304.488 1236.33 289.423 1236.46 270.897V270.442C1236.46 270.4 1236.47 270.359 1236.47 270.318V225.025C1236.47 218.513 1241.74 213.233 1248.24 213.233Z" fill="white"/>
<path fill-rule="evenodd" clip-rule="evenodd" d="M762.624 162.999C769.12 163 774.388 168.28 774.388 174.791V269.499L774.316 272.45C772.784 302.733 747.787 326.812 717.188 326.812C685.604 326.809 660.001 301.15 660 269.499C660.002 237.849 685.604 212.19 717.188 212.187C729.774 212.187 741.414 216.268 750.859 223.172V174.791C750.859 168.279 756.126 162.999 762.624 162.999ZM717.188 235.763C698.599 235.766 683.53 250.872 683.529 269.499C683.53 288.127 698.599 303.232 717.188 303.235C735.778 303.235 750.858 288.129 750.859 269.499C750.858 250.87 735.778 235.763 717.188 235.763Z" fill="white"/>
<path fill-rule="evenodd" clip-rule="evenodd" d="M838.333 212.187C869.92 212.187 895.527 237.853 895.527 269.506C895.524 301.156 869.918 326.812 838.333 326.812C806.75 326.81 781.143 301.155 781.139 269.506C781.139 237.853 806.748 212.188 838.333 212.187ZM838.333 235.763C819.743 235.765 804.674 250.876 804.674 269.506C804.678 288.133 819.745 303.234 838.333 303.235C856.923 303.235 871.995 288.134 871.999 269.506C871.999 250.875 856.925 235.763 838.333 235.763Z" fill="white"/>
<path fill-rule="evenodd" clip-rule="evenodd" d="M1080.62 212.187C1111.22 212.187 1136.21 236.267 1137.74 266.548L1137.81 269.506V315.027C1137.81 321.537 1132.54 326.812 1126.05 326.812C1119.81 326.812 1114.71 321.946 1114.32 315.794C1104.86 322.714 1093.22 326.812 1080.62 326.812C1049.03 326.81 1023.43 301.155 1023.42 269.506C1023.42 237.853 1049.03 212.188 1080.62 212.187ZM1080.62 235.763C1062.03 235.765 1046.96 250.876 1046.96 269.506C1046.96 288.133 1062.03 303.234 1080.62 303.235C1099.21 303.235 1114.28 288.133 1114.28 269.506C1114.28 250.875 1099.21 235.764 1080.62 235.763Z" fill="white"/>
</svg>
