<svg width="1920" height="1080" viewBox="0 0 1920 1080" fill="none" xmlns="http://www.w3.org/2000/svg">
<g clip-path="url(#clip0_306_212)">
<rect width="1920" height="1080" fill="white"/>
<rect x="1920" y="540" width="540" height="1920" transform="rotate(90 1920 540)" fill="white"/>
<rect x="1920" width="540" height="1920" transform="rotate(90 1920 0)" fill="#0A0D12"/>
<path fill-rule="evenodd" clip-rule="evenodd" d="M960.1 712.871C984.368 712.872 1004.04 732.629 1004.04 756.999C1004.04 781.37 984.368 801.126 960.1 801.127C950.43 801.127 941.491 797.985 934.234 792.669V829.92C934.234 834.934 930.187 838.999 925.195 838.999C920.203 838.999 916.156 834.934 916.156 829.92V756.999L916.211 754.727C917.389 731.412 936.59 712.872 960.1 712.871ZM960.1 731.029C945.816 731.03 934.235 742.656 934.234 756.999C934.234 771.343 945.816 782.974 960.1 782.975C974.383 782.973 985.96 771.343 985.961 756.999C985.96 742.656 974.383 731.03 960.1 731.029Z" fill="#181D27"/>
<path d="M1181.96 713.677C1186.95 713.678 1191 717.743 1191 722.756V794.791C1191 819.115 1171.41 838.999 1146.98 838.999C1141.98 838.999 1137.94 834.934 1137.94 829.92C1137.94 824.908 1141.98 820.842 1146.98 820.842C1161.37 820.842 1172.92 809.143 1172.92 794.791V793.61C1165.66 798.937 1156.7 802.098 1146.98 802.098C1122.46 802.097 1103.11 782.127 1103.11 757.725V722.756C1103.11 717.743 1107.16 713.678 1112.15 713.677C1117.14 713.677 1121.19 717.742 1121.19 722.756V757.725C1121.19 772.319 1132.66 783.939 1146.98 783.941C1161.31 783.939 1172.82 772.34 1172.92 758.075V757.725C1172.92 757.693 1172.92 757.662 1172.92 757.63V722.756C1172.92 717.742 1176.97 713.677 1181.96 713.677Z" fill="#181D27"/>
<path fill-rule="evenodd" clip-rule="evenodd" d="M808.849 674.999C813.841 675 817.888 679.065 817.888 684.078V756.999L817.833 759.271C816.656 782.587 797.45 801.127 773.939 801.127C749.672 801.125 730.001 781.369 730 756.999C730.001 732.63 749.673 712.874 773.939 712.871C783.61 712.871 792.553 716.013 799.81 721.329V684.078C799.81 679.065 803.857 674.999 808.849 674.999ZM773.939 731.024C759.657 731.026 748.079 742.657 748.078 756.999C748.079 771.342 759.657 782.972 773.939 782.975C788.223 782.975 799.809 771.343 799.81 756.999C799.809 742.656 788.223 731.024 773.939 731.024Z" fill="#181D27"/>
<path fill-rule="evenodd" clip-rule="evenodd" d="M867.019 712.871C891.289 712.871 910.964 732.633 910.964 757.004C910.961 781.374 891.287 801.127 867.019 801.127C842.753 801.126 823.078 781.373 823.075 757.004C823.075 732.633 842.751 712.872 867.019 712.871ZM867.019 731.024C852.736 731.025 841.158 742.66 841.158 757.004C841.161 771.346 852.737 782.973 867.019 782.975C881.302 782.974 892.883 771.347 892.886 757.004C892.886 742.66 881.304 731.024 867.019 731.024Z" fill="#181D27"/>
<path fill-rule="evenodd" clip-rule="evenodd" d="M1053.18 712.871C1076.68 712.872 1095.89 731.412 1097.06 754.727L1097.12 757.004V792.053C1097.12 797.066 1093.07 801.127 1088.08 801.127C1083.29 801.127 1079.37 797.381 1079.07 792.644C1071.8 797.973 1062.86 801.127 1053.18 801.127C1028.91 801.126 1009.23 781.373 1009.23 757.004C1009.23 732.633 1028.91 712.872 1053.18 712.871ZM1053.18 731.024C1038.89 731.025 1027.31 742.66 1027.31 757.004C1027.32 771.346 1038.89 782.973 1053.18 782.975C1067.46 782.974 1079.04 771.347 1079.04 757.004C1079.04 742.66 1067.46 731.025 1053.18 731.024Z" fill="#181D27"/>
<path d="M750 944.916L766.747 867.984H788.818C795.768 867.984 801.202 869.862 805.121 873.619C809.114 877.303 811.11 881.601 811.11 886.513C811.11 895.543 806.97 901.863 798.689 905.475C805.713 908.292 809.225 913.421 809.225 920.862C809.225 928.158 806.489 934.009 801.018 938.415C795.546 942.749 787.857 944.916 777.949 944.916H750ZM762.311 935.815H779.391C785.601 935.815 790.407 934.442 793.809 931.697C797.284 928.952 799.021 925.449 799.021 921.187C799.021 917.936 797.764 915.227 795.25 913.06C792.736 910.821 789.15 909.701 784.492 909.701H767.967L762.311 935.815ZM769.852 901.033H783.938C789.187 901.033 793.328 899.805 796.359 897.349C799.465 894.893 801.018 891.714 801.018 887.813C801.018 884.779 799.909 882.251 797.69 880.228C795.472 878.134 792.33 877.086 788.263 877.086H774.954L769.852 901.033Z" fill="#181D27"/>
<path d="M837.504 946C831.071 946 826.228 943.688 822.975 939.065C819.795 934.442 818.945 928.735 820.424 921.945L827.3 890.739H836.838L830.073 921.837C829.038 926.604 829.407 930.397 831.182 933.214C833.03 936.031 835.951 937.44 839.944 937.44C844.454 937.512 848.336 935.995 851.589 932.889C854.916 929.783 857.245 925.232 858.576 919.236L864.787 890.739H874.325L862.569 944.916H853.031L854.583 937.982C850.295 943.327 844.602 946 837.504 946Z" fill="#181D27"/>
<path d="M898.29 946C892.005 946 886.866 944.447 882.874 941.341C878.955 938.235 876.922 934.189 876.774 929.205H886.423C886.792 932.167 888.086 934.406 890.304 935.923C892.523 937.368 895.332 938.09 898.733 938.09C901.617 938.09 904.094 937.368 906.164 935.923C908.235 934.478 909.27 932.745 909.27 930.722C909.27 928.627 908.641 926.93 907.384 925.629C906.127 924.329 904.131 923.137 901.395 922.054L895.85 919.995C888.086 917.105 884.205 912.193 884.205 905.258C884.205 900.419 885.942 896.626 889.417 893.881C892.966 891.064 897.624 889.655 903.392 889.655C908.937 889.655 913.484 891.208 917.033 894.315C920.582 897.349 922.505 900.96 922.8 905.15H913.373C912.93 902.839 911.784 900.997 909.935 899.624C908.087 898.179 905.758 897.457 902.948 897.457C900.434 897.457 898.253 898.107 896.404 899.407C894.63 900.635 893.743 902.261 893.743 904.283C893.743 907.823 895.924 910.423 900.286 912.085L905.61 914.144C909.824 915.805 913.078 917.828 915.37 920.211C917.736 922.595 918.919 925.774 918.919 929.747C918.919 934.731 917.07 938.704 913.373 941.666C909.676 944.555 904.649 946 898.29 946Z" fill="#181D27"/>
<path d="M953.082 874.377C951.825 875.605 950.235 876.219 948.313 876.219C946.39 876.219 944.764 875.605 943.433 874.377C942.102 873.077 941.436 871.488 941.436 869.61C941.436 867.804 942.102 866.251 943.433 864.95C944.764 863.65 946.39 863 948.313 863C950.235 863 951.825 863.65 953.082 864.95C954.413 866.251 955.078 867.804 955.078 869.61C955.078 871.488 954.413 873.077 953.082 874.377ZM927.018 944.916L938.775 890.739H948.313L936.556 944.916H927.018Z" fill="#181D27"/>
<path d="M952.527 944.916L964.283 890.739H973.822L972.269 897.674C976.705 892.328 982.731 889.655 990.347 889.655C996.779 889.655 1001.62 891.931 1004.88 896.482C1008.2 901.033 1009.13 906.775 1007.65 913.71L1000.66 944.916H991.123L997.888 914.035C998.998 909.123 998.591 905.258 996.669 902.441C994.82 899.624 991.752 898.215 987.463 898.215C982.805 898.215 978.775 899.768 975.374 902.875C971.973 905.909 969.607 910.46 968.276 916.527L962.065 944.916H952.527Z" fill="#181D27"/>
<path d="M1042.46 946C1035.14 946 1029.11 943.616 1024.38 938.849C1019.65 934.081 1017.28 927.941 1017.28 920.428C1017.28 911.688 1020.13 904.392 1025.82 898.54C1031.59 892.617 1039.02 889.655 1048.11 889.655C1056.54 889.655 1063.08 892.4 1067.74 897.89C1072.4 903.38 1073.92 910.857 1072.29 920.32H1026.49C1026.49 925.376 1028 929.53 1031.03 932.781C1034.06 935.959 1038.09 937.548 1043.12 937.548C1051.18 937.548 1056.87 934.514 1060.2 928.446H1070.29C1068.22 933.72 1064.82 937.982 1060.09 941.232C1055.36 944.411 1049.48 946 1042.46 946ZM1047.11 897.89C1042.68 897.89 1038.69 899.191 1035.14 901.791C1031.59 904.392 1029.18 908.112 1027.93 912.952H1062.86C1062.86 908.256 1061.46 904.572 1058.65 901.899C1055.84 899.227 1051.99 897.89 1047.11 897.89Z" fill="#181D27"/>
<path d="M1098.02 946C1091.73 946 1086.6 944.447 1082.6 941.341C1078.68 938.235 1076.65 934.189 1076.5 929.205H1086.15C1086.52 932.167 1087.82 934.406 1090.03 935.923C1092.25 937.368 1095.06 938.09 1098.46 938.09C1101.35 938.09 1103.82 937.368 1105.89 935.923C1107.96 934.478 1109 932.745 1109 930.722C1109 928.627 1108.37 926.93 1107.11 925.629C1105.86 924.329 1103.86 923.137 1101.12 922.054L1095.58 919.995C1087.82 917.105 1083.93 912.193 1083.93 905.258C1083.93 900.419 1085.67 896.626 1089.15 893.881C1092.7 891.064 1097.35 889.655 1103.12 889.655C1108.67 889.655 1113.21 891.208 1116.76 894.315C1120.31 897.349 1122.23 900.96 1122.53 905.15H1113.1C1112.66 902.839 1111.51 900.997 1109.66 899.624C1107.82 898.179 1105.49 897.457 1102.68 897.457C1100.16 897.457 1097.98 898.107 1096.13 899.407C1094.36 900.635 1093.47 902.261 1093.47 904.283C1093.47 907.823 1095.65 910.423 1100.02 912.085L1105.34 914.144C1109.55 915.805 1112.81 917.828 1115.1 920.211C1117.47 922.595 1118.65 925.774 1118.65 929.747C1118.65 934.731 1116.8 938.704 1113.1 941.666C1109.41 944.555 1104.38 946 1098.02 946Z" fill="#181D27"/>
<path d="M1146.49 946C1140.2 946 1135.07 944.447 1131.07 941.341C1127.15 938.235 1125.12 934.189 1124.97 929.205H1134.62C1134.99 932.167 1136.29 934.406 1138.5 935.923C1140.72 937.368 1143.53 938.09 1146.93 938.09C1149.82 938.09 1152.29 937.368 1154.36 935.923C1156.43 934.478 1157.47 932.745 1157.47 930.722C1157.47 928.627 1156.84 926.93 1155.58 925.629C1154.33 924.329 1152.33 923.137 1149.59 922.054L1144.05 919.995C1136.29 917.105 1132.4 912.193 1132.4 905.258C1132.4 900.419 1134.14 896.626 1137.62 893.881C1141.17 891.064 1145.82 889.655 1151.59 889.655C1157.14 889.655 1161.68 891.208 1165.23 894.315C1168.78 897.349 1170.7 900.96 1171 905.15H1161.57C1161.13 902.839 1159.98 900.997 1158.13 899.624C1156.29 898.179 1153.96 897.457 1151.15 897.457C1148.63 897.457 1146.45 898.107 1144.6 899.407C1142.83 900.635 1141.94 902.261 1141.94 904.283C1141.94 907.823 1144.12 910.423 1148.49 912.085L1153.81 914.144C1158.02 915.805 1161.28 917.828 1163.57 920.211C1165.94 922.595 1167.12 925.774 1167.12 929.747C1167.12 934.731 1165.27 938.704 1161.57 941.666C1157.88 944.555 1152.85 946 1146.49 946Z" fill="#181D27"/>
<path fill-rule="evenodd" clip-rule="evenodd" d="M960.1 171.871C984.368 171.872 1004.04 191.629 1004.04 215.999C1004.04 240.37 984.368 260.126 960.1 260.127C950.43 260.127 941.491 256.985 934.234 251.669V288.92C934.234 293.934 930.187 297.999 925.195 297.999C920.203 297.999 916.156 293.934 916.156 288.92V215.999L916.211 213.727C917.389 190.412 936.59 171.872 960.1 171.871ZM960.1 190.029C945.816 190.03 934.235 201.656 934.234 215.999C934.234 230.343 945.816 241.974 960.1 241.975C974.383 241.973 985.96 230.343 985.961 215.999C985.96 201.656 974.383 190.03 960.1 190.029Z" fill="white"/>
<path d="M1181.96 172.677C1186.95 172.678 1191 176.743 1191 181.756V253.791C1191 278.115 1171.41 297.999 1146.98 297.999C1141.98 297.999 1137.94 293.934 1137.94 288.92C1137.94 283.908 1141.98 279.842 1146.98 279.842C1161.37 279.842 1172.92 268.143 1172.92 253.791V252.61C1165.66 257.937 1156.7 261.098 1146.98 261.098C1122.46 261.097 1103.11 241.127 1103.11 216.725V181.756C1103.11 176.743 1107.16 172.678 1112.15 172.677C1117.14 172.677 1121.19 176.742 1121.19 181.756V216.725C1121.19 231.319 1132.66 242.939 1146.98 242.941C1161.31 242.939 1172.82 231.34 1172.92 217.075V216.725C1172.92 216.693 1172.92 216.662 1172.92 216.63V181.756C1172.92 176.742 1176.97 172.677 1181.96 172.677Z" fill="white"/>
<path fill-rule="evenodd" clip-rule="evenodd" d="M808.849 133.999C813.841 134 817.888 138.065 817.888 143.078V215.999L817.833 218.271C816.656 241.587 797.45 260.127 773.939 260.127C749.672 260.125 730.001 240.369 730 215.999C730.001 191.63 749.673 171.874 773.939 171.871C783.61 171.871 792.553 175.013 799.81 180.329V143.078C799.81 138.065 803.857 133.999 808.849 133.999ZM773.939 190.024C759.657 190.026 748.079 201.657 748.078 215.999C748.079 230.342 759.657 241.972 773.939 241.975C788.223 241.975 799.809 230.343 799.81 215.999C799.809 201.656 788.223 190.024 773.939 190.024Z" fill="white"/>
<path fill-rule="evenodd" clip-rule="evenodd" d="M867.019 171.871C891.289 171.871 910.964 191.633 910.964 216.004C910.961 240.374 891.287 260.127 867.019 260.127C842.753 260.126 823.078 240.373 823.075 216.004C823.075 191.633 842.751 171.872 867.019 171.871ZM867.019 190.024C852.736 190.025 841.158 201.66 841.158 216.004C841.161 230.346 852.737 241.973 867.019 241.975C881.302 241.974 892.883 230.347 892.886 216.004C892.886 201.66 881.304 190.024 867.019 190.024Z" fill="white"/>
<path fill-rule="evenodd" clip-rule="evenodd" d="M1053.18 171.871C1076.68 171.872 1095.89 190.412 1097.06 213.727L1097.12 216.004V251.053C1097.12 256.066 1093.07 260.127 1088.08 260.127C1083.29 260.127 1079.37 256.381 1079.07 251.644C1071.8 256.973 1062.86 260.127 1053.18 260.127C1028.91 260.126 1009.23 240.373 1009.23 216.004C1009.23 191.633 1028.91 171.872 1053.18 171.871ZM1053.18 190.024C1038.89 190.025 1027.31 201.66 1027.31 216.004C1027.32 230.346 1038.89 241.973 1053.18 241.975C1067.46 241.974 1079.04 230.347 1079.04 216.004C1079.04 201.66 1067.46 190.025 1053.18 190.024Z" fill="white"/>
<path d="M750 403.916L766.747 326.984H788.818C795.768 326.984 801.202 328.862 805.121 332.619C809.114 336.303 811.11 340.601 811.11 345.513C811.11 354.543 806.97 360.863 798.689 364.475C805.713 367.292 809.225 372.421 809.225 379.862C809.225 387.158 806.489 393.009 801.018 397.415C795.546 401.749 787.857 403.916 777.949 403.916H750ZM762.311 394.815H779.391C785.601 394.815 790.407 393.442 793.809 390.697C797.284 387.952 799.021 384.449 799.021 380.187C799.021 376.936 797.764 374.227 795.25 372.06C792.736 369.821 789.15 368.701 784.492 368.701H767.967L762.311 394.815ZM769.852 360.033H783.938C789.187 360.033 793.328 358.805 796.359 356.349C799.465 353.893 801.018 350.714 801.018 346.813C801.018 343.779 799.909 341.251 797.69 339.228C795.472 337.134 792.33 336.086 788.263 336.086H774.954L769.852 360.033Z" fill="white"/>
<path d="M837.504 405C831.071 405 826.228 402.688 822.975 398.065C819.795 393.442 818.945 387.735 820.424 380.945L827.3 349.739H836.838L830.073 380.837C829.038 385.604 829.407 389.397 831.182 392.214C833.03 395.031 835.951 396.44 839.944 396.44C844.454 396.512 848.336 394.995 851.589 391.889C854.916 388.783 857.245 384.232 858.576 378.236L864.787 349.739H874.325L862.569 403.916H853.031L854.583 396.982C850.295 402.327 844.602 405 837.504 405Z" fill="white"/>
<path d="M898.29 405C892.005 405 886.866 403.447 882.874 400.341C878.955 397.235 876.922 393.189 876.774 388.205H886.423C886.792 391.167 888.086 393.406 890.304 394.923C892.523 396.368 895.332 397.09 898.733 397.09C901.617 397.09 904.094 396.368 906.164 394.923C908.235 393.478 909.27 391.745 909.27 389.722C909.27 387.627 908.641 385.93 907.384 384.629C906.127 383.329 904.131 382.137 901.395 381.054L895.85 378.995C888.086 376.105 884.205 371.193 884.205 364.258C884.205 359.419 885.942 355.626 889.417 352.881C892.966 350.064 897.624 348.655 903.392 348.655C908.937 348.655 913.484 350.208 917.033 353.315C920.582 356.349 922.505 359.96 922.8 364.15H913.373C912.93 361.839 911.784 359.997 909.935 358.624C908.087 357.179 905.758 356.457 902.948 356.457C900.434 356.457 898.253 357.107 896.404 358.407C894.63 359.635 893.743 361.261 893.743 363.283C893.743 366.823 895.924 369.423 900.286 371.085L905.61 373.144C909.824 374.805 913.078 376.828 915.37 379.211C917.736 381.595 918.919 384.774 918.919 388.747C918.919 393.731 917.07 397.704 913.373 400.666C909.676 403.555 904.649 405 898.29 405Z" fill="white"/>
<path d="M953.082 333.377C951.825 334.605 950.235 335.219 948.313 335.219C946.39 335.219 944.764 334.605 943.433 333.377C942.102 332.077 941.436 330.488 941.436 328.61C941.436 326.804 942.102 325.251 943.433 323.95C944.764 322.65 946.39 322 948.313 322C950.235 322 951.825 322.65 953.082 323.95C954.413 325.251 955.078 326.804 955.078 328.61C955.078 330.488 954.413 332.077 953.082 333.377ZM927.018 403.916L938.775 349.739H948.313L936.556 403.916H927.018Z" fill="white"/>
<path d="M952.527 403.916L964.283 349.739H973.822L972.269 356.674C976.705 351.328 982.731 348.655 990.347 348.655C996.779 348.655 1001.62 350.931 1004.88 355.482C1008.2 360.033 1009.13 365.775 1007.65 372.71L1000.66 403.916H991.123L997.888 373.035C998.998 368.123 998.591 364.258 996.669 361.441C994.82 358.624 991.752 357.215 987.463 357.215C982.805 357.215 978.775 358.768 975.374 361.875C971.973 364.909 969.607 369.46 968.276 375.527L962.065 403.916H952.527Z" fill="white"/>
<path d="M1042.46 405C1035.14 405 1029.11 402.616 1024.38 397.849C1019.65 393.081 1017.28 386.941 1017.28 379.428C1017.28 370.688 1020.13 363.392 1025.82 357.54C1031.59 351.617 1039.02 348.655 1048.11 348.655C1056.54 348.655 1063.08 351.4 1067.74 356.89C1072.4 362.38 1073.92 369.857 1072.29 379.32H1026.49C1026.49 384.376 1028 388.53 1031.03 391.781C1034.06 394.959 1038.09 396.548 1043.12 396.548C1051.18 396.548 1056.87 393.514 1060.2 387.446H1070.29C1068.22 392.72 1064.82 396.982 1060.09 400.232C1055.36 403.411 1049.48 405 1042.46 405ZM1047.11 356.89C1042.68 356.89 1038.69 358.191 1035.14 360.791C1031.59 363.392 1029.18 367.112 1027.93 371.952H1062.86C1062.86 367.256 1061.46 363.572 1058.65 360.899C1055.84 358.227 1051.99 356.89 1047.11 356.89Z" fill="white"/>
<path d="M1098.02 405C1091.73 405 1086.6 403.447 1082.6 400.341C1078.68 397.235 1076.65 393.189 1076.5 388.205H1086.15C1086.52 391.167 1087.82 393.406 1090.03 394.923C1092.25 396.368 1095.06 397.09 1098.46 397.09C1101.35 397.09 1103.82 396.368 1105.89 394.923C1107.96 393.478 1109 391.745 1109 389.722C1109 387.627 1108.37 385.93 1107.11 384.629C1105.86 383.329 1103.86 382.137 1101.12 381.054L1095.58 378.995C1087.82 376.105 1083.93 371.193 1083.93 364.258C1083.93 359.419 1085.67 355.626 1089.15 352.881C1092.7 350.064 1097.35 348.655 1103.12 348.655C1108.67 348.655 1113.21 350.208 1116.76 353.315C1120.31 356.349 1122.23 359.96 1122.53 364.15H1113.1C1112.66 361.839 1111.51 359.997 1109.66 358.624C1107.82 357.179 1105.49 356.457 1102.68 356.457C1100.16 356.457 1097.98 357.107 1096.13 358.407C1094.36 359.635 1093.47 361.261 1093.47 363.283C1093.47 366.823 1095.65 369.423 1100.02 371.085L1105.34 373.144C1109.55 374.805 1112.81 376.828 1115.1 379.211C1117.47 381.595 1118.65 384.774 1118.65 388.747C1118.65 393.731 1116.8 397.704 1113.1 400.666C1109.41 403.555 1104.38 405 1098.02 405Z" fill="white"/>
<path d="M1146.49 405C1140.2 405 1135.07 403.447 1131.07 400.341C1127.15 397.235 1125.12 393.189 1124.97 388.205H1134.62C1134.99 391.167 1136.29 393.406 1138.5 394.923C1140.72 396.368 1143.53 397.09 1146.93 397.09C1149.82 397.09 1152.29 396.368 1154.36 394.923C1156.43 393.478 1157.47 391.745 1157.47 389.722C1157.47 387.627 1156.84 385.93 1155.58 384.629C1154.33 383.329 1152.33 382.137 1149.59 381.054L1144.05 378.995C1136.29 376.105 1132.4 371.193 1132.4 364.258C1132.4 359.419 1134.14 355.626 1137.62 352.881C1141.17 350.064 1145.82 348.655 1151.59 348.655C1157.14 348.655 1161.68 350.208 1165.23 353.315C1168.78 356.349 1170.7 359.96 1171 364.15H1161.57C1161.13 361.839 1159.98 359.997 1158.13 358.624C1156.29 357.179 1153.96 356.457 1151.15 356.457C1148.63 356.457 1146.45 357.107 1144.6 358.407C1142.83 359.635 1141.94 361.261 1141.94 363.283C1141.94 366.823 1144.12 369.423 1148.49 371.085L1153.81 373.144C1158.02 374.805 1161.28 376.828 1163.57 379.211C1165.94 381.595 1167.12 384.774 1167.12 388.747C1167.12 393.731 1165.27 397.704 1161.57 400.666C1157.88 403.555 1152.85 405 1146.49 405Z" fill="white"/>
</g>
<defs>
<clipPath id="clip0_306_212">
<rect width="1920" height="1080" fill="white"/>
</clipPath>
</defs>
</svg>
