<svg width="1920" height="1080" viewBox="0 0 1920 1080" fill="none" xmlns="http://www.w3.org/2000/svg">
<g clip-path="url(#clip0_2_211)">
<rect width="1920" height="1080" fill="white"/>
<rect x="1920" y="540" width="540" height="1920" transform="rotate(90 1920 540)" fill="white"/>
<rect x="1920" width="540" height="1920" transform="rotate(90 1920 0)" fill="#6E37CC"/>
<path fill-rule="evenodd" clip-rule="evenodd" d="M959.479 212.187C991.064 212.188 1016.67 237.848 1016.67 269.499C1016.67 301.151 991.064 326.81 959.479 326.812C946.893 326.811 935.259 322.73 925.814 315.826V364.208C925.814 370.719 920.547 375.999 914.049 375.999C907.552 375.999 902.285 370.719 902.285 364.208V269.499L902.357 266.548C903.89 236.267 928.881 212.187 959.479 212.187ZM959.479 235.769C940.889 235.77 925.815 250.87 925.814 269.499C925.815 288.129 940.889 303.235 959.479 303.235C978.069 303.234 993.137 288.128 993.138 269.499C993.137 250.87 978.069 235.771 959.479 235.769Z" fill="white"/>
<path d="M1248.24 213.233C1254.73 213.234 1260 218.514 1260 225.025V318.583C1260 350.174 1234.51 375.999 1202.7 375.999C1196.2 375.999 1190.94 370.719 1190.94 364.208C1190.94 357.698 1196.21 352.416 1202.7 352.416C1221.44 352.416 1236.46 337.222 1236.46 318.583V317.048C1227.02 323.968 1215.36 328.072 1202.7 328.073C1170.79 328.071 1145.61 302.135 1145.61 270.442V225.025C1145.61 218.514 1150.88 213.234 1157.38 213.233C1163.87 213.233 1169.14 218.513 1169.14 225.025V270.442C1169.14 289.396 1184.07 304.488 1202.7 304.49C1221.36 304.488 1236.33 289.423 1236.46 270.897V270.442C1236.46 270.4 1236.47 270.359 1236.47 270.318V225.025C1236.47 218.513 1241.74 213.233 1248.24 213.233Z" fill="white"/>
<path fill-rule="evenodd" clip-rule="evenodd" d="M762.624 162.999C769.12 163 774.388 168.28 774.388 174.791V269.499L774.316 272.45C772.784 302.733 747.787 326.812 717.188 326.812C685.604 326.809 660.001 301.15 660 269.499C660.002 237.849 685.604 212.19 717.188 212.187C729.774 212.187 741.414 216.268 750.859 223.172V174.791C750.859 168.279 756.126 162.999 762.624 162.999ZM717.188 235.763C698.599 235.766 683.53 250.872 683.529 269.499C683.53 288.127 698.599 303.232 717.188 303.235C735.778 303.235 750.858 288.129 750.859 269.499C750.858 250.87 735.778 235.763 717.188 235.763Z" fill="white"/>
<path fill-rule="evenodd" clip-rule="evenodd" d="M838.333 212.187C869.92 212.187 895.527 237.853 895.527 269.506C895.524 301.156 869.918 326.812 838.333 326.812C806.75 326.81 781.143 301.155 781.139 269.506C781.139 237.853 806.748 212.188 838.333 212.187ZM838.333 235.763C819.743 235.765 804.674 250.876 804.674 269.506C804.678 288.133 819.745 303.234 838.333 303.235C856.923 303.235 871.995 288.134 871.999 269.506C871.999 250.875 856.925 235.763 838.333 235.763Z" fill="white"/>
<path fill-rule="evenodd" clip-rule="evenodd" d="M1080.62 212.187C1111.22 212.187 1136.21 236.267 1137.74 266.548L1137.81 269.506V315.027C1137.81 321.537 1132.54 326.812 1126.05 326.812C1119.81 326.812 1114.71 321.946 1114.32 315.794C1104.86 322.714 1093.22 326.812 1080.62 326.812C1049.03 326.81 1023.43 301.155 1023.42 269.506C1023.42 237.853 1049.03 212.188 1080.62 212.187ZM1080.62 235.763C1062.03 235.765 1046.96 250.876 1046.96 269.506C1046.96 288.133 1062.03 303.234 1080.62 303.235C1099.21 303.235 1114.28 288.133 1114.28 269.506C1114.28 250.875 1099.21 235.764 1080.62 235.763Z" fill="white"/>
<path fill-rule="evenodd" clip-rule="evenodd" d="M959.479 753.187C991.064 753.188 1016.67 778.848 1016.67 810.499C1016.67 842.151 991.064 867.81 959.479 867.812C946.893 867.812 935.259 863.73 925.814 856.826V905.208C925.814 911.719 920.547 916.999 914.049 916.999C907.552 916.999 902.285 911.719 902.285 905.208V810.499L902.357 807.548C903.89 777.267 928.881 753.187 959.479 753.187ZM959.479 776.769C940.889 776.77 925.815 791.87 925.814 810.499C925.815 829.129 940.889 844.235 959.479 844.235C978.069 844.234 993.137 829.128 993.138 810.499C993.137 791.87 978.069 776.771 959.479 776.769Z" fill="#6E37CC"/>
<path d="M1248.24 754.233C1254.73 754.234 1260 759.514 1260 766.025V859.583C1260 891.174 1234.51 916.999 1202.7 916.999C1196.2 916.999 1190.94 911.719 1190.94 905.208C1190.94 898.698 1196.21 893.416 1202.7 893.416C1221.44 893.416 1236.46 878.222 1236.46 859.583V858.048C1227.02 864.968 1215.36 869.072 1202.7 869.073C1170.79 869.071 1145.61 843.135 1145.61 811.442V766.025C1145.61 759.514 1150.88 754.234 1157.38 754.233C1163.87 754.233 1169.14 759.513 1169.14 766.025V811.442C1169.14 830.396 1184.07 845.489 1202.7 845.49C1221.36 845.488 1236.33 830.423 1236.46 811.897V811.442C1236.46 811.401 1236.47 811.359 1236.47 811.318V766.025C1236.47 759.513 1241.74 754.233 1248.24 754.233Z" fill="#6E37CC"/>
<path fill-rule="evenodd" clip-rule="evenodd" d="M762.624 703.999C769.12 704 774.388 709.28 774.388 715.791V810.499L774.316 813.45C772.784 843.733 747.787 867.812 717.188 867.812C685.604 867.809 660.001 842.15 660 810.499C660.002 778.849 685.604 753.19 717.188 753.187C729.774 753.187 741.414 757.268 750.859 764.172V715.791C750.859 709.279 756.126 703.999 762.624 703.999ZM717.188 776.763C698.599 776.766 683.53 791.872 683.529 810.499C683.53 829.127 698.599 844.232 717.188 844.235C735.778 844.235 750.858 829.129 750.859 810.499C750.858 791.87 735.778 776.763 717.188 776.763Z" fill="#6E37CC"/>
<path fill-rule="evenodd" clip-rule="evenodd" d="M838.333 753.187C869.92 753.187 895.527 778.853 895.527 810.506C895.524 842.156 869.918 867.812 838.333 867.812C806.75 867.81 781.143 842.155 781.139 810.506C781.139 778.853 806.748 753.188 838.333 753.187ZM838.333 776.763C819.743 776.765 804.674 791.876 804.674 810.506C804.678 829.133 819.745 844.234 838.333 844.235C856.923 844.235 871.995 829.134 871.999 810.506C871.999 791.875 856.925 776.763 838.333 776.763Z" fill="#6E37CC"/>
<path fill-rule="evenodd" clip-rule="evenodd" d="M1080.62 753.187C1111.22 753.187 1136.21 777.267 1137.74 807.548L1137.81 810.506V856.027C1137.81 862.537 1132.54 867.812 1126.05 867.812C1119.81 867.812 1114.71 862.946 1114.32 856.794C1104.86 863.714 1093.22 867.812 1080.62 867.812C1049.03 867.81 1023.43 842.155 1023.42 810.506C1023.42 778.853 1049.03 753.188 1080.62 753.187ZM1080.62 776.763C1062.03 776.765 1046.96 791.876 1046.96 810.506C1046.96 829.133 1062.03 844.234 1080.62 844.235C1099.21 844.235 1114.28 829.133 1114.28 810.506C1114.28 791.875 1099.21 776.764 1080.62 776.763Z" fill="#6E37CC"/>
</g>
<defs>
<clipPath id="clip0_2_211">
<rect width="1920" height="1080" fill="white"/>
</clipPath>
</defs>
</svg>
