<svg width="156" height="156" viewBox="0 0 156 156" fill="none" xmlns="http://www.w3.org/2000/svg">
<path fill-rule="evenodd" clip-rule="evenodd" d="M132 0C139.732 0 146 6.26801 146 14V87.6992L145.916 91.2129C144.095 127.3 114.38 155.998 78 156C40.4476 155.998 10.0016 125.419 10 87.6992C10.0013 49.9795 40.4474 19.4004 78 19.3984C92.9629 19.3993 106.796 24.2602 118.025 32.4873V32H118V14C118 6.26801 124.268 0 132 0ZM78 47.498C55.898 47.5 37.9759 65.4988 37.9746 87.6992C37.9762 109.899 55.8982 127.898 78 127.9C100.102 127.898 118.024 109.899 118.025 87.6992C118.024 65.4989 100.102 47.5002 78 47.498Z" fill="white"/>
</svg>
