<svg width="89" height="28" viewBox="0 0 89 28" fill="none" xmlns="http://www.w3.org/2000/svg">
<path fill-rule="evenodd" clip-rule="evenodd" d="M18.0085 6.8013C19.0599 5.6799 20.4947 5.04167 22 5.04167C23.5054 5.04167 24.9402 5.6799 25.9915 6.8013C27.0416 7.92134 27.625 9.4323 27.625 11C27.625 14.0255 28.2322 15.9258 28.8065 17.0488C29.0943 17.6115 29.3765 17.9845 29.5767 18.21C29.677 18.3229 29.7572 18.3993 29.8078 18.4443C29.8332 18.4669 29.8512 18.4816 29.8606 18.4891L29.8679 18.4947C30.0855 18.6531 30.1774 18.9333 30.0954 19.1901C30.0127 19.4492 29.772 19.625 29.5 19.625H14.5C14.2281 19.625 13.9874 19.4492 13.9047 19.1901C13.8226 18.9333 13.9146 18.6531 14.1322 18.4947L14.1395 18.4891C14.1489 18.4816 14.1669 18.4669 14.1922 18.4443C14.2429 18.3993 14.3231 18.3229 14.4234 18.21C14.6236 17.9845 14.9058 17.6115 15.1936 17.0488C15.7678 15.9258 16.375 14.0255 16.375 11C16.375 9.4323 16.9585 7.92134 18.0085 6.8013ZM28.1343 18.375C27.9909 18.1587 27.8417 17.9075 27.6936 17.6179C27.0178 16.2965 26.375 14.1968 26.375 11C26.375 9.73872 25.9049 8.53658 25.0796 7.65623C24.2556 6.77725 23.1469 6.29167 22 6.29167C20.8532 6.29167 19.7445 6.77725 18.9205 7.65623C18.0951 8.53658 17.625 9.73872 17.625 11C17.625 14.1968 16.9822 16.2965 16.3065 17.6179C16.1584 17.9075 16.0092 18.1587 15.8658 18.375H28.1343ZM14.1371 18.4912C14.1371 18.4912 14.1371 18.4912 14.137 18.4912L14.1366 18.4915L14.1363 18.4917L14.1362 18.4918C14.1364 18.4917 14.1365 18.4916 14.1366 18.4915C14.1368 18.4914 14.1369 18.4913 14.1371 18.4912Z" fill="#181D27"/>
<path fill-rule="evenodd" clip-rule="evenodd" d="M20.2447 20.9594C20.5433 20.7862 20.9258 20.8878 21.099 21.1864C21.1905 21.3442 21.322 21.4753 21.4801 21.5664C21.6382 21.6574 21.8175 21.7054 22 21.7054C22.1825 21.7054 22.3618 21.6574 22.5199 21.5664C22.678 21.4753 22.8095 21.3442 22.901 21.1864C23.0742 20.8878 23.4567 20.7862 23.7553 20.9594C24.0538 21.1326 24.1555 21.515 23.9823 21.8136C23.7808 22.1609 23.4917 22.4491 23.1438 22.6495C22.7959 22.8499 22.4015 22.9554 22 22.9554C21.5985 22.9554 21.2041 22.8499 20.8562 22.6495C20.5083 22.4491 20.2192 22.1609 20.0177 21.8136C19.8445 21.515 19.9461 21.1326 20.2447 20.9594Z" fill="#181D27"/>
<circle cx="33" cy="3" r="3" fill="#D92D20"/>
<rect x="44" y="8" width="1" height="12" rx="0.5" fill="#D5D7DA"/>
<path d="M72 14.4167C72.2302 14.4167 72.4167 14.2301 72.4167 14C72.4167 13.7699 72.2302 13.5833 72 13.5833C71.7699 13.5833 71.5834 13.7699 71.5834 14C71.5834 14.2301 71.7699 14.4167 72 14.4167Z" fill="#181D27" stroke="#181D27" stroke-width="1.5" stroke-linecap="round" stroke-linejoin="round"/>
<path d="M67 14.4167C67.2302 14.4167 67.4167 14.2301 67.4167 14C67.4167 13.7699 67.2302 13.5833 67 13.5833C66.7699 13.5833 66.5834 13.7699 66.5834 14C66.5834 14.2301 66.7699 14.4167 67 14.4167Z" fill="#181D27" stroke="#181D27" stroke-width="1.5" stroke-linecap="round" stroke-linejoin="round"/>
<path d="M62 14.4167C62.2302 14.4167 62.4167 14.2301 62.4167 14C62.4167 13.7699 62.2302 13.5833 62 13.5833C61.7699 13.5833 61.5834 13.7699 61.5834 14C61.5834 14.2301 61.7699 14.4167 62 14.4167Z" fill="#181D27" stroke="#181D27" stroke-width="1.5" stroke-linecap="round" stroke-linejoin="round"/>
</svg>
